<svg xmlns="http://www.w3.org/2000/svg" width="128" height="128" viewBox="0 0 128 128">
  <defs>
    <linearGradient id="bg" x1="18" y1="14" x2="112" y2="118" gradientUnits="userSpaceOnUse">
      <stop stop-color="#102133"/>
      <stop offset="1" stop-color="#071018"/>
    </linearGradient>
    <linearGradient id="bloom" x1="31" y1="35" x2="95" y2="97" gradientUnits="userSpaceOnUse">
      <stop stop-color="#5AF3C8"/>
      <stop offset=".52" stop-color="#4DC7FF"/>
      <stop offset="1" stop-color="#168F7D"/>
    </linearGradient>
    <filter id="glow" x="-30%" y="-30%" width="160%" height="160%">
      <feGaussianBlur stdDeviation="3" result="blur"/>
      <feMerge>
        <feMergeNode in="blur"/>
        <feMergeNode in="SourceGraphic"/>
      </feMerge>
    </filter>
  </defs>
  <rect x="8" y="8" width="112" height="112" rx="28" fill="url(#bg)"/>
  <rect x="8.5" y="8.5" width="111" height="111" rx="27.5" fill="none" stroke="#284254"/>
  <path d="M32 78c0-24 16-42 37-46 12-2 24 1 31 8-2 25-20 45-45 45H32Z" fill="#0C1B25"/>
  <path d="M64 91V55" stroke="#EAF6F8" stroke-width="7" stroke-linecap="round"/>
  <g filter="url(#glow)" fill="url(#bloom)">
    <rect x="31" y="69" width="18" height="18" rx="4"/>
    <rect x="55" y="45" width="18" height="18" rx="4"/>
    <rect x="79" y="67" width="18" height="18" rx="4"/>
    <rect x="43" y="89" width="18" height="18" rx="4"/>
    <rect x="67" y="89" width="18" height="18" rx="4"/>
  </g>
  <path d="M35 74c10-18 25-29 47-29" fill="none" stroke="#70F6D4" stroke-width="3" stroke-linecap="round" opacity=".75"/>
</svg>
